<?xml version="1.0" standalone="no"?>
<!DOCTYPE svg PUBLIC "-//W3C//DTD SVG 20010904//EN"
 "http://www.w3.org/TR/2001/REC-SVG-20010904/DTD/svg10.dtd">
<svg version="1.0" xmlns="http://www.w3.org/2000/svg"
 width="300.000000pt" height="300.000000pt" viewBox="0 0 300.000000 300.000000"
 preserveAspectRatio="xMidYMid meet">
<metadata>
Created by potrace 1.10, written by Peter Selinger 2001-2011
</metadata>
<g transform="translate(0.000000,300.000000) scale(0.100000,-0.100000)"
fill="#000000" stroke="none">
<path d="M1410 2804 c-147 -29 -274 -85 -387 -170 -166 -127 -271 -302 -318
-529 -8 -38 -12 -71 -10 -73 2 -2 22 15 46 37 23 23 64 54 91 69 44 24 54 36
93 117 90 187 245 316 445 371 46 13 99 18 180 18 98 -1 127 -5 193 -27 107
-37 180 -81 259 -155 78 -74 137 -159 168 -242 19 -52 26 -60 71 -80 27 -13
70 -43 95 -67 25 -25 48 -43 50 -41 10 11 -49 225 -81 291 -104 220 -304 390
-537 458 -72 21 -295 35 -358 23z m262 -38 c140 -27 245 -72 353 -150 65 -47
171 -163 214 -235 56 -92 110 -251 86 -251 -3 0 -23 11 -45 25 -22 14 -43 25
-48 25 -4 0 -27 39 -50 88 -128 265 -379 420 -664 410 -286 -11 -504 -159
-641 -438 -21 -43 -37 -60 -72 -79 -25 -13 -47 -22 -50 -20 -20 21 80 246 142
319 146 171 295 262 493 301 108 21 189 23 282 5z"/>
<path d="M1480 2529 c-233 -20 -435 -197 -495 -434 -8 -32 -15 -72 -15 -88 0
-39 40 -77 83 -77 47 0 75 33 88 105 52 281 374 424 612 272 27 -16 62 -30 78
-30 39 0 79 38 79 75 0 43 -14 63 -72 98 -103 64 -226 91 -358 79z m180 -40
c65 -15 186 -77 205 -105 12 -18 13 -29 5 -43 -18 -35 -45 -34 -117 3 -88 45
-158 60 -250 53 -148 -11 -262 -83 -344 -217 -19 -30 -59 -147 -59 -171 0 -30
-38 -50 -67 -36 -24 11 -25 14 -20 72 19 196 185 382 397 441 55 15 189 17
250 3z"/>
<path d="M1357 2207 c-3 -8 -8 -58 -12 -113 l-7 -99 32 -40 32 -40 -6 -105
c-4 -58 -9 -131 -12 -162 l-6 -57 -38 19 c-21 11 -41 24 -45 30 -3 5 -22 10
-41 10 -70 0 -108 -77 -64 -132 24 -31 147 -92 219 -108 69 -16 194 -16 262 0
53 12 149 55 192 85 125 87 237 279 237 407 0 76 -78 115 -132 65 -18 -16 -26
-38 -31 -75 -8 -68 -50 -152 -105 -207 -44 -45 -129 -102 -138 -93 -2 3 -9 74
-16 160 l-12 154 40 36 39 36 0 80 c0 75 -2 83 -31 119 -36 45 -70 52 -106 23
-29 -22 -58 -96 -58 -147 0 -47 24 -98 54 -118 30 -20 31 -38 19 -254 l-6
-122 -80 3 c-78 3 -80 4 -83 28 -1 14 -6 93 -10 177 l-7 152 28 33 c27 32 27
33 20 136 -7 111 -11 132 -27 132 -6 0 -9 -33 -7 -87 3 -61 1 -87 -8 -90 -9
-3 -13 20 -15 83 -2 59 -7 89 -15 92 -10 3 -13 -19 -13 -87 0 -54 -4 -91 -10
-91 -6 0 -10 37 -10 90 0 81 -9 112 -23 77z m336 -59 c27 -36 34 -116 14 -155
-33 -63 -66 -67 -105 -10 -27 41 -24 111 9 164 25 41 52 41 82 1z m-254 -127
c12 -8 12 -14 1 -40 -14 -35 -27 -39 -46 -13 -25 33 -17 52 26 61 3 0 11 -3
19 -8z m625 -93 c15 -24 -8 -128 -47 -208 -43 -88 -150 -196 -238 -239 -158
-77 -350 -72 -505 15 -70 38 -86 72 -53 105 25 25 35 24 88 -6 54 -31 65 -31
90 1 14 18 21 22 21 11 0 -8 12 -29 26 -46 24 -28 31 -31 88 -31 70 0 100 15
110 56 l7 27 20 -22 c28 -30 48 -27 117 20 88 58 144 137 172 241 12 46 24 87
27 91 8 14 65 3 77 -15z"/>
<path d="M690 1904 c0 -3 9 -52 21 -107 68 -337 327 -594 668 -663 110 -22
284 -15 390 16 238 68 441 243 543 468 27 60 84 279 75 288 -2 2 -22 -13 -44
-35 -23 -21 -66 -53 -96 -70 -48 -28 -57 -37 -75 -88 -47 -128 -177 -276 -304
-346 -110 -61 -195 -82 -333 -81 -102 0 -132 5 -200 27 -197 65 -360 218 -426
398 -19 52 -27 62 -74 88 -30 17 -72 48 -96 71 -43 40 -49 45 -49 34z m1634
-165 c-83 -282 -292 -485 -580 -565 -115 -31 -270 -33 -391 -4 -279 67 -502
274 -592 549 -34 104 -29 110 47 59 42 -27 55 -45 97 -130 76 -156 205 -277
364 -342 288 -117 596 -41 814 201 21 23 62 88 92 145 46 88 61 108 102 134
59 38 69 28 47 -47z"/>
<path d="M1410 731 c0 -174 5 -191 60 -191 35 0 40 3 40 24 0 15 -7 26 -21 29
-19 5 -20 12 -18 139 l1 133 -31 3 -31 3 0 -140z"/>
<path d="M1613 849 c-39 -12 -63 -43 -63 -84 0 -49 24 -72 100 -95 37 -11 70
-26 73 -33 17 -49 -75 -67 -116 -23 -22 23 -24 24 -45 7 -46 -34 16 -84 105
-84 62 0 102 23 117 67 21 58 -17 97 -124 128 -70 20 -67 67 4 68 16 0 37 -7
47 -15 21 -20 71 -10 67 13 -8 41 -102 71 -165 51z"/>
<path d="M520 695 l0 -155 31 0 30 0 -2 100 c-2 101 3 130 16 90 4 -11 20 -49
35 -84 39 -85 56 -81 104 25 20 43 38 79 39 79 1 0 1 -47 -1 -105 l-4 -105 31
0 31 0 0 155 0 155 -35 0 c-31 0 -36 -4 -55 -45 -11 -25 -30 -66 -42 -92 l-22
-48 -43 93 c-42 90 -44 92 -78 92 l-35 0 0 -155z"/>
<path d="M951 768 c-63 -34 -86 -130 -44 -186 41 -56 143 -62 189 -11 16 17
16 22 4 29 -21 14 -37 12 -65 -6 -32 -21 -68 -12 -83 21 l-12 25 85 0 85 0 0
35 c0 73 -94 128 -159 93z m97 -65 c14 -23 14 -23 -42 -23 -42 0 -56 4 -56 15
0 38 73 44 98 8z"/>
<path d="M1210 773 c-19 -7 -60 -44 -60 -54 0 -16 51 -19 67 -4 22 22 68 16
68 -9 0 -15 -11 -22 -50 -31 -63 -14 -74 -21 -85 -51 -27 -70 71 -119 131 -67
14 12 17 12 22 -2 4 -9 19 -15 37 -15 23 0 30 4 30 19 0 11 -4 23 -10 26 -5 3
-10 35 -10 71 0 36 -4 74 -10 84 -16 30 -88 48 -130 33z m82 -148 c-5 -29 -33
-48 -65 -43 -37 5 -28 41 13 55 52 18 58 16 52 -12z"/>
<path d="M1810 771 c0 -3 21 -58 46 -123 37 -96 44 -121 34 -133 -7 -8 -21
-15 -31 -15 -14 0 -19 -7 -19 -25 0 -21 5 -25 29 -25 53 0 77 34 131 185 27
76 50 140 50 140 0 1 -15 -1 -34 -3 -33 -4 -34 -5 -56 -88 -21 -77 -40 -109
-40 -67 0 9 -10 47 -22 84 -20 63 -23 67 -55 71 -18 2 -33 2 -33 -1z"/>
<path d="M2184 770 c-12 -5 -25 -13 -29 -19 -10 -17 -25 -13 -19 4 5 11 -1 15
-25 15 l-31 0 0 -115 0 -115 30 0 30 0 0 73 c0 83 13 110 54 110 39 0 46 -16
46 -105 l0 -78 30 0 30 0 0 85 c0 96 -15 139 -52 149 -29 7 -38 7 -64 -4z"/>
<path d="M2411 767 c-64 -33 -87 -128 -44 -185 27 -37 86 -56 129 -42 35 12
78 56 68 71 -8 14 -50 10 -64 -6 -15 -18 -61 -20 -78 -3 -7 7 -12 31 -12 55 0
35 5 46 26 59 24 16 26 16 54 -5 21 -15 37 -20 55 -15 30 8 31 14 4 43 -37 40
-93 51 -138 28z"/>
<path d="M1477 403 c-4 -3 -7 -14 -7 -24 0 -12 -6 -16 -19 -12 -20 5 -51 -21
-51 -43 0 -35 20 -53 55 -52 l35 1 0 69 c0 68 -1 74 -13 61z m-9 -86 c3 -22
-1 -27 -18 -27 -23 0 -35 22 -26 46 10 25 41 12 44 -19z"/>
<path d="M1897 403 c-2 -5 -5 -36 -5 -70 -1 -49 1 -63 13 -63 10 0 13 8 9 28
-6 33 9 57 30 49 10 -4 16 -19 16 -42 0 -19 5 -35 10 -35 16 0 12 76 -5 90 -8
6 -23 9 -36 5 -18 -6 -20 -4 -15 13 7 20 -8 40 -17 25z"/>
<path d="M561 341 c-24 -66 -25 -71 -12 -71 5 0 13 9 16 20 4 13 15 20 30 20
15 0 26 -7 30 -20 3 -11 11 -20 16 -20 11 0 6 23 -22 88 -10 23 -22 42 -27 42
-5 0 -19 -26 -31 -59z m49 -8 c0 -7 -7 -13 -15 -13 -16 0 -19 9 -9 35 5 13 8
14 15 3 5 -7 9 -19 9 -25z"/>
<path d="M670 335 c0 -37 4 -65 10 -65 6 0 10 28 10 65 0 37 -4 65 -10 65 -6
0 -10 -28 -10 -65z"/>
<path d="M1610 335 c0 -75 17 -89 22 -17 l3 47 30 -47 c42 -66 55 -62 55 17 0
75 -17 89 -22 18 l-3 -48 -30 47 c-42 67 -55 63 -55 -17z"/>
<path d="M780 298 c0 -39 4 -68 10 -68 6 0 10 11 10 24 0 19 4 23 20 19 28 -7
50 14 50 47 0 35 -17 49 -58 48 l-32 -1 0 -69z m68 19 c3 -22 -1 -27 -18 -27
-23 0 -35 22 -26 46 10 25 41 12 44 -19z"/>
<path d="M902 358 c-15 -15 -15 -61 0 -76 21 -21 57 -14 70 13 21 46 -36 97
-70 63z m53 -38 c0 -16 -6 -26 -19 -28 -24 -5 -37 17 -25 41 14 26 44 17 44
-13z"/>
<path d="M990 365 c0 -3 5 -26 11 -51 11 -44 26 -57 34 -29 16 49 18 50 28 17
6 -18 15 -31 20 -29 12 4 39 89 31 96 -7 8 -24 -21 -24 -41 0 -29 -17 -20 -23
12 -9 41 -23 38 -35 -7 l-10 -38 -7 33 c-7 28 -25 55 -25 37z"/>
<path d="M1146 354 c-20 -19 -21 -58 -2 -74 17 -13 58 -10 63 6 2 7 -8 9 -27
6 -18 -3 -30 0 -30 7 0 6 16 11 35 11 24 0 35 5 35 14 0 18 -27 46 -45 46 -7
0 -21 -7 -29 -16z"/>
<path d="M1240 318 c0 -27 5 -48 10 -48 6 0 10 16 10 35 0 22 6 38 15 41 24 9
17 22 -10 20 -23 -1 -25 -5 -25 -48z"/>
<path d="M1316 354 c-20 -19 -21 -58 -2 -74 17 -13 58 -10 63 6 2 7 -8 9 -27
6 -18 -3 -30 0 -30 7 0 6 16 11 35 11 24 0 35 5 35 14 0 18 -27 46 -45 46 -7
0 -21 -7 -29 -16z"/>
<path d="M1758 359 c-21 -12 -24 -59 -6 -77 15 -15 51 -15 66 0 17 17 15 54
-4 72 -18 18 -32 20 -56 5z m47 -39 c0 -18 -6 -26 -22 -28 -18 -3 -23 1 -23
21 0 28 9 39 30 35 9 -2 15 -14 15 -28z"/>
<path d="M2000 333 c0 -51 11 -64 48 -61 31 2 32 3 32 51 0 29 -4 46 -10 42
-5 -3 -10 -22 -10 -41 0 -27 -4 -34 -20 -34 -17 0 -20 7 -20 40 0 22 -4 40
-10 40 -5 0 -10 -17 -10 -37z"/>
<path d="M2110 318 c0 -57 17 -65 22 -11 2 27 8 39 21 41 14 3 17 -4 17 -37 0
-23 5 -41 10 -41 14 0 12 76 -2 88 -7 6 -25 10 -40 9 -26 -2 -28 -5 -28 -49z"/>
<path d="M2222 358 c-17 -17 -15 -63 3 -78 8 -7 24 -10 36 -7 13 3 19 1 16 -6
-2 -7 -19 -11 -38 -9 -32 3 -33 2 -17 -15 14 -13 23 -15 45 -7 26 9 28 14 31
70 l3 61 -34 1 c-19 1 -39 -4 -45 -10z m53 -38 c0 -16 -6 -26 -18 -28 -19 -4
-32 20 -23 44 9 25 41 13 41 -16z"/>
<path d="M2338 359 c-22 -12 -24 -62 -4 -79 17 -13 58 -10 63 6 2 7 -8 9 -27
6 -18 -3 -30 0 -30 7 0 6 16 11 35 11 39 0 46 17 17 43 -21 19 -30 20 -54 6z"/>
<path d="M2430 318 c0 -27 5 -48 10 -48 6 0 10 16 10 35 0 22 6 38 15 41 24 9
17 22 -10 20 -23 -1 -25 -5 -25 -48z"/>
</g>
</svg>
