<?xml version="1.0" standalone="no"?>
<!DOCTYPE svg PUBLIC "-//W3C//DTD SVG 20010904//EN"
 "http://www.w3.org/TR/2001/REC-SVG-20010904/DTD/svg10.dtd">
<svg version="1.0" xmlns="http://www.w3.org/2000/svg"
 width="300.000000pt" height="281.000000pt" viewBox="0 0 300.000000 281.000000"
 preserveAspectRatio="xMidYMid meet">
<metadata>
Created by potrace 1.10, written by Peter Selinger 2001-2011
</metadata>
<g transform="translate(0.000000,281.000000) scale(0.100000,-0.100000)"
fill="#000000" stroke="none">
<path d="M1355 2634 c-92 -14 -200 -40 -273 -64 -363 -124 -672 -455 -771
-826 -24 -90 -51 -234 -43 -234 3 0 30 24 61 54 31 29 93 74 137 100 80 46 81
47 109 119 120 309 403 539 741 603 117 22 305 15 419 -16 214 -57 406 -188
537 -364 57 -77 130 -213 144 -269 5 -21 20 -35 63 -56 66 -34 172 -112 201
-148 11 -14 23 -24 26 -21 8 8 -24 172 -51 263 -126 419 -487 746 -927 841
-71 15 -314 27 -373 18z m263 -39 c133 -9 334 -72 447 -140 32 -19 60 -35 62
-35 3 0 17 -10 32 -22 15 -13 43 -34 62 -48 45 -33 176 -164 214 -214 95 -126
165 -268 206 -419 27 -101 22 -116 -28 -83 -21 14 -65 41 -98 60 -49 28 -64
43 -78 78 -67 161 -124 246 -250 376 -122 126 -347 245 -507 268 -14 2 -36 6
-50 9 -14 3 -78 5 -143 5 -281 1 -502 -90 -711 -289 -100 -96 -176 -210 -235
-352 -11 -26 -30 -54 -43 -63 -51 -37 -164 -106 -172 -106 -21 0 28 174 81
290 161 352 513 619 893 680 76 12 160 17 210 13 19 -1 68 -5 108 -8z"/>
<path d="M1341 2225 c-191 -35 -374 -144 -497 -298 -100 -126 -174 -315 -174
-447 0 -43 5 -56 29 -80 37 -38 75 -47 125 -29 49 17 67 48 91 162 26 118 75
209 160 294 197 194 493 227 725 80 101 -64 182 -53 216 30 29 69 -1 121 -105
183 -177 105 -371 141 -570 105z m249 -28 c116 -10 281 -77 361 -145 32 -28
39 -40 39 -70 0 -49 -32 -82 -80 -82 -19 0 -44 6 -55 14 -52 36 -142 78 -207
96 -106 29 -267 23 -367 -14 -181 -68 -314 -203 -376 -383 -13 -37 -27 -86
-30 -108 -4 -22 -16 -55 -27 -72 -17 -28 -25 -33 -59 -33 -30 0 -47 7 -66 26
-24 24 -25 30 -19 88 18 175 97 331 236 466 128 125 304 205 475 218 50 4 99
6 110 5 11 -1 40 -4 65 -6z"/>
<path d="M1296 1783 c-3 -3 -6 -62 -6 -130 0 -116 -1 -123 -20 -123 -19 0 -20
7 -20 125 0 104 -2 125 -15 125 -8 0 -15 -7 -15 -15 0 -8 -5 -71 -11 -140 -14
-150 -9 -181 36 -235 33 -40 35 -46 35 -119 0 -81 -20 -394 -25 -399 -2 -2
-37 17 -78 42 -47 29 -87 46 -107 46 -104 0 -156 -126 -83 -202 34 -35 208
-122 288 -143 88 -23 238 -30 335 -16 176 26 317 98 451 231 100 99 155 187
200 321 39 118 47 194 25 237 -29 56 -98 77 -155 48 -43 -23 -52 -40 -71 -136
-25 -123 -70 -210 -150 -290 -56 -56 -175 -140 -199 -140 -9 0 -31 280 -31
389 l0 74 49 47 c56 54 78 118 66 198 -9 62 -47 146 -81 177 -29 27 -80 33
-115 15 -44 -24 -99 -152 -99 -230 0 -65 28 -128 76 -168 l44 -36 -1 -96 c0
-52 -6 -165 -12 -250 l-12 -155 -115 0 -115 0 -12 180 c-6 99 -12 215 -12 259
-1 76 0 80 34 117 35 39 35 40 35 132 0 124 -19 257 -37 257 -10 0 -13 -27
-13 -124 0 -111 -8 -154 -24 -128 -3 5 -8 64 -12 131 -7 114 -12 139 -28 124z
m398 -63 c45 -40 70 -107 70 -185 -1 -67 -5 -77 -71 -148 l-42 -46 -42 42
c-63 62 -77 97 -72 176 5 76 43 158 83 178 34 17 35 17 74 -17z m-335 -211
c22 1 23 -2 18 -34 -5 -29 -16 -49 -65 -115 -5 -8 -42 41 -62 84 -20 43 -16
69 9 62 9 -3 23 -1 31 4 8 5 22 7 30 4 8 -4 26 -6 39 -5z m880 -115 c24 -20
31 -34 31 -60 0 -59 -30 -175 -66 -252 -191 -417 -679 -581 -1094 -366 -91 47
-112 66 -123 114 -9 38 23 86 64 94 25 5 46 -1 93 -25 34 -17 65 -35 71 -40
16 -16 44 -10 59 14 7 12 17 56 20 97 3 41 11 79 16 84 6 6 10 6 10 0 1 -5 5
-54 10 -108 10 -120 23 -138 103 -146 66 -7 156 5 173 22 18 18 34 106 34 189
0 100 16 84 24 -23 9 -113 24 -143 68 -134 16 3 42 15 58 26 15 11 33 20 39
20 6 0 11 4 11 8 0 4 13 15 28 25 103 60 200 226 227 387 9 51 53 100 90 100
13 0 37 -12 54 -26z"/>
<path d="M264 1308 c3 -18 13 -72 21 -120 102 -574 614 -998 1206 -998 324 0
625 126 860 360 185 184 297 403 343 668 9 50 16 98 16 106 0 8 -24 -9 -54
-37 -30 -29 -79 -68 -111 -87 -115 -71 -118 -73 -135 -125 -117 -344 -459
-611 -826 -644 -196 -17 -413 27 -571 115 -80 45 -195 136 -255 202 -83 93
-169 240 -199 339 -11 39 -20 47 -101 95 -49 29 -111 75 -139 105 -28 29 -52
53 -55 53 -3 0 -3 -15 0 -32z m105 -106 c20 -16 57 -41 83 -56 58 -34 63 -39
102 -128 118 -269 339 -478 603 -569 161 -55 421 -64 588 -20 86 23 286 116
322 150 12 12 25 21 28 21 16 0 167 155 212 218 46 64 133 231 133 255 0 7 10
23 23 34 22 21 182 123 192 123 10 0 4 -57 -14 -125 -68 -260 -241 -510 -456
-660 -95 -66 -239 -142 -315 -164 -25 -7 -56 -17 -70 -22 -58 -20 -211 -39
-316 -39 -345 0 -676 153 -908 420 -73 85 -135 187 -196 324 -21 47 -70 224
-70 252 0 21 19 17 59 -14z"/>
</g>
</svg>
